<svg xmlns="http://www.w3.org/2000/svg" width="1200" height="900" viewBox="0 0 1200 900">
  <defs>
    <marker id="arrow" markerWidth="10" markerHeight="10" refX="10" refY="5"
            orient="auto" markerUnits="strokeWidth">
      <path d="M0,0 L10,5 L0,10 Z" fill="#bbb"/>
    </marker>
  </defs>

  <!-- Background -->
  <rect x="0" y="0" width="1200" height="900" fill="#0e0e0e"/>

  <!-- Boxes -->
  <g fill="#151515" stroke="#bbb" stroke-width="1.5">
    <rect x="450" y="40"  width="300" height="60"/>
    <rect x="350" y="140" width="500" height="110"/>

    <rect x="200" y="300" width="300" height="80"/>
    <rect x="700" y="300" width="300" height="80"/>

    <rect x="450" y="430" width="300" height="60"/>

    <rect x="200" y="560" width="300" height="80"/>
    <rect x="700" y="560" width="300" height="80"/>

    <rect x="450" y="690" width="300" height="70"/>
    <rect x="350" y="800" width="500" height="90"/>
  </g>

  <!-- Text -->
  <g font-family="monospace" font-size="14" fill="#e6e6e6" text-anchor="middle">
    <text x="600" y="75">FEATURE REQUEST from you</text>

    <text x="600" y="165">COUNSELOR: Comprehensive Planning</text>
    <text x="600" y="185">- SPEC.md design contract, all flows</text>
    <text x="600" y="205">- SESSION-N-ROLE-TASK.md atomic tasks</text>
    <text x="600" y="225">Quality: Every agent can execute from this</text>

    <text x="350" y="335">ENGINEER</text>
    <text x="350" y="355">implement</text>

    <text x="850" y="335">MACHINIST</text>
    <text x="850" y="355">Polish</text>

    <text x="600" y="465">YOU: Test against SPEC.md</text>

    <text x="350" y="595">SURGEON</text>
    <text x="350" y="615">Fix</text>

    <text x="850" y="595">AUDITOR</text>
    <text x="850" y="615">Audit, Refactor, Clean</text>

    <text x="600" y="725">YOU: Approve</text>
    <text x="600" y="745">COUNSELOR: write ARCHITECTURE.md</text>

    <text x="600" y="830">JOURNALIST</text>
    <text x="600" y="850">update SESSION-LOG.md</text>
    <text x="600" y="870">update ARCHITECTURE.md, SPEC.md</text>
  </g>

  <!-- Orthogonal Arrows -->
  <g stroke="#bbb" stroke-width="1.5" fill="none" marker-end="url(#arrow)">
    <!-- Start -> Counselor -->
    <path d="M600 100 V140"/>

    <!-- Counselor -> Engineer -->
    <path d="M450 250 V280 H350 V300"/>

    <!-- Counselor -> Machinist -->
    <path d="M750 250 V280 H850 V300"/>

    <!-- Engineer -> Test -->
    <path d="M350 380 V410 H600 V430"/>

    <!-- Machinist -> Test -->
    <path d="M850 380 V410 H600 V430"/>

    <!-- Test -> Surgeon (Fail) -->
    <path d="M600 490 V520 H350 V560"/>

    <!-- Surgeon -> Test (return loop, clean L) -->
    <path d="M200 600 H150 V460 H450"/>

    <!-- Test -> Auditor (Pass) -->
    <path d="M600 490 V520 H850 V560"/>

    <!-- Auditor -> Approve -->
    <path d="M850 640 V665 H600 V690"/>

    <!-- Approve -> Journalist -->
    <path d="M600 760 V800"/>
  </g>

  <!-- Edge Labels -->
  <g font-family="monospace" font-size="12" fill="#bbb">
    <text x="390" y="515">Fail</text>
    <text x="780" y="515">Pass</text>
  </g>
</svg>